PathFileType	4	(X/Y/Z)	Kaydara																																																																																																																									
DataRate	CameraRate	NumFrames	NumMarkers	Units	OrigDataRate	OrigDataStartFrame	OrigNumFrames																																																																																																																					
30	30	4	41	mm	30	144	147																																																																																																																					
Frame#	Time	PAIB_LFHD			PAIB_RFHD			PAIB_LBHD			PAIB_RBHD			PAIB_LFTShould			PAIB_RFTShould			PAIB_LRRShould			PAIB_RRRShould			PAIB_T10			PAIB_STRN			PAIB_TRUN			PAIB_LSHO			PAIB_LUPA			PAIB_LELB			PAIB_LFRM			PAIB_LWRA			PAIB_LWRB			PAIB_LFIN			PAIB_RSHO			PAIB_RUPA			PAIB_RELB			PAIB_RFRM			PAIB_RWRA			PAIB_RWRB			PAIB_RFIN			PAIB_LFWT			PAIB_RFWT			PAIB_LBWT			PAIB_RBWT			PAIB_LTHI			PAIB_LKNE			PAIB_LSHN			PAIB_LANK			PAIB_LHEE			PAIB_LTOE			PAIB_RTHI			PAIB_RKNE			PAIB_RSHN			PAIB_RANK			PAIB_RHEE			PAIB_RTOE		
		X1	Y1	Z1	X2	Y2	Z2	X3	Y3	Z3	X4	Y4	Z4	X5	Y5	Z5	X6	Y6	Z6	X7	Y7	Z7	X8	Y8	Z8	X9	Y9	Z9	X10	Y10	Z10	X11	Y11	Z11	X12	Y12	Z12	X13	Y13	Z13	X14	Y14	Z14	X15	Y15	Z15	X16	Y16	Z16	X17	Y17	Z17	X18	Y18	Z18	X19	Y19	Z19	X20	Y20	Z20	X21	Y21	Z21	X22	Y22	Z22	X23	Y23	Z23	X24	Y24	Z24	X25	Y25	Z25	X26	Y26	Z26	X27	Y27	Z27	X28	Y28	Z28	X29	Y29	Z29	X30	Y30	Z30	X31	Y31	Z31	X32	Y32	Z32	X33	Y33	Z33	X34	Y34	Z34	X35	Y35	Z35	X36	Y36	Z36	X37	Y37	Z37	X38	Y38	Z38	X39	Y39	Z39	X40	Y40	Z40	X41	Y41	Z41
																																																																																																																												
129	4.767	308.29477	1649.45328	1855.48523	125.23963	1639.99893	1833.18573	334.13597	1597.49832	1740.26855	131.3905	1600.29526	1723.86108	276.84608	1378.35968	1874.07578	154.84115	1374.06693	1859.38034	300.41489	1443.21106	1728.125	152.13338	1437.80777	1722.20123	234.68266	1279.63737	1647.33261	220.30224	1311.07071	1908.33298	217.59676	1209.46182	1930.56335	412.77924	1399.22073	1802.28821	477.40665	1185.20332	1823.60977	519.80709	1102.60239	1790.22827	515.42667	1019.58672	1889.478	430.83511	980.23903	2012.87781	471.01009	922.21519	1973.53836	470.94803	927.33704	2045.73242	31.89233	1379.75571	1778.19321	-22.24068	1216.06049	1696.16699	-42.76541	1106.27098	1668.26157	-76.66317	975.25887	1654.65561	-50.25618	837.37892	1723.09616	-107.98948	850.67871	1662.80518	-115.56539	794.71344	1712.65442	335.98927	918.78288	1884.29337	102.68017	926.13571	1888.25195	260.03773	959.92607	1669.54361	117.97424	952.7063	1673.46146	312.9813	723.91212	1647.67334	346.55159	460.40237	1689.95453	312.84872	272.44106	1669.15176	306.15105	100.43011	1555.74753	252.76339	100.86968	1503.5141	279.67293	35.86152	1719.50241	62.07016	648.42384	1789.9614	50.05919	456.57288	1961.07132	99.76923	284.34191	2034.97787	79.87664	60.37852	2003.14941	153.25994	65.76371	1965.1651	71.40383	73.73728	2176.02066
130	4.8	302.35981	1638.65875	1907.65244	119.71365	1627.74094	1882.23175	331.48117	1586.16089	1793.61786	127.75181	1587.19666	1773.26996	272.9003	1366.42426	1927.49969	150.65733	1361.05255	1909.33563	298.84068	1432.16522	1781.48941	151.11911	1424.19342	1771.94733	234.89239	1266.97792	1701.3916	216.51304	1298.76709	1960.81924	215.02018	1197.13058	1982.90192	409.19685	1390.01648	1858.97369	480.05806	1180.60814	1888.13705	525.85541	1098.16429	1861.19812	517.83508	1028.36876	1969.6553	428.72917	1006.08658	2093.43842	471.1541	942.65068	2064.12552	468.11966	959.86084	2135.5098	29.27438	1367.15179	1824.12811	-19.91881	1205.86899	1732.66846	-39.46719	1097.56851	1700.12802	-74.24796	968.55789	1677.14325	-59.38214	828.27728	1744.07562	-108.42611	844.49188	1676.21735	-124.17223	787.61856	1722.46628	336.95942	906.70029	1935.02045	102.89272	914.14246	1944.29443	255.98877	950.57022	1723.78143	113.7356	939.4574	1728.70621	307.61654	724.57123	1693.21075	345.67158	458.45089	1718.55637	314.0629	271.74831	1685.03021	305.35595	106.91313	1560.84885	250.85291	110.30806	1509.935	280.13876	35.76411	1720.36316	66.58817	631.90502	1838.52142	52.28682	447.52342	2023.25104	102.86398	292.67557	2124.35669	75.64462	69.56656	2136.77277	147.2804	62.044	2093.45016	74.5007	117.85881	2305.11475
131	4.833	295.86752	1629.36066	1959.05289	113.51067	1618.0954	1931.17081	326.82156	1574.95453	1846.41281	123.62033	1575.58258	1822.94632	267.49756	1357.39929	1982.2583	145.34143	1350.04868	1962.30347	294.65324	1423.11859	1836.05682	147.29881	1412.76642	1825.07401	232.9077	1256.57249	1756.44714	211.76699	1288.80264	2014.7757	211.41781	1187.19337	2036.87775	404.39247	1383.5611	1914.93683	480.55161	1177.86964	1948.65189	527.99786	1095.67886	1924.95392	519.67979	1036.92238	2040.14999	429.64348	1027.12753	2164.66736	472.83688	960.71724	2142.06192	468.66379	986.07635	2210.75577	25.11008	1355.69504	1874.53033	-20.39416	1197.14447	1776.67587	-39.06127	1090.34485	1740.18372	-73.57985	962.76123	1710.44418	-64.34104	818.56201	1771.49918	-108.77707	839.1394	1702.72247	-129.07402	781.33514	1745.55725	337.42863	897.55257	1990.59021	103.57052	903.56651	2000.13	252.96974	942.83852	1779.42032	110.75994	930.61874	1784.70993	301.01746	720.17609	1744.01443	347.73632	457.11781	1752.62756	315.65174	271.06365	1707.18033	306.90329	117.06048	1569.1922	251.66149	124.38863	1519.42947	280.51666	35.64784	1720.84061	62.32863	623.61282	1896.87897	53.55928	442.29362	2087.42035	104.46301	291.81757	2193.20007	78.37054	78.67516	2220.50674	150.62696	59.5121	2175.14374	85.79657	129.02234	2385.24323
132	4.867	288.6429	1622.99881	2009.45221	106.41176	1611.38168	1980.30273	320.43015	1564.93195	1898.7973	117.47938	1565.41473	1873.30231	260.82926	1350.85129	2039.14978	139.10778	1341.35956	2018.72437	287.77325	1417.34985	1893.04581	140.68663	1404.8317	1882.16873	229.35555	1250.11612	1812.6474	205.71798	1281.13434	2071.08215	206.50383	1179.43695	2092.84393	398.06355	1379.86908	1971.77292	478.84892	1176.23947	2004.94553	527.58522	1094.91737	1981.19019	520.59086	1042.4585	2100.30029	432.10457	1040.31609	2225.923	474.15031	972.08176	2206.59866	472.59445	1002.52747	2273.40805	19.12231	1345.73776	1930.78064	-24.25325	1189.14642	1829.53201	-41.87619	1083.42987	1790.20966	-75.69332	956.96854	1756.24359	-67.44829	810.98312	1812.87338	-110.72299	833.79204	1743.93051	-131.30764	774.14085	1784.45847	336.00456	890.15572	2047.55417	103.31184	899.60709	2058.16437	250.81926	934.11125	1836.16653	108.60356	924.77943	1841.77689	297.36107	716.78032	1798.03207	348.38795	453.46191	1799.49463	317.65676	271.31758	1736.05103	313.23219	131.96875	1582.93442	258.75774	144.08401	1533.04047	281.45176	35.51971	1721.90552	57.54281	620.96619	1965.27725	56.83426	439.60281	2151.48682	111.85724	277.1117	2243.5939	85.42019	59.78703	2248.80371	154.27531	47.61734	2200.10803	98.2951	98.83287	2414.30145
